<?xml version="1.0" encoding="UTF-8" standalone="no"?>
<!DOCTYPE svg PUBLIC "-//W3C//DTD SVG 1.1//EN" "http://www.w3.org/Graphics/SVG/1.1/DTD/svg11.dtd">
<svg xmlns="http://www.w3.org/2000/svg" version="1.1" viewBox="0.00 0.00 1024.00 1024.00">
  <g stroke-width="2.00" fill="none" stroke-linecap="butt">
    <path stroke="#8f908a" vector-effect="non-scaling-stroke" d="
  M 447.84 515.91
  L 459.77 444.31
  A 0.91 0.90 -19.2 0 0 458.21 443.56
  C 440.40 463.01 422.87 482.96 407.43 504.14
  Q 393.55 523.17 379.51 542.22
  A 1.86 1.85 -44.6 0 0 379.49 544.41
  C 380.51 545.84 380.82 547.72 380.84 549.63
  Q 381.08 570.75 380.91 592.24
  A 4.02 3.97 -25.6 0 1 380.02 594.72
  L 363.18 615.53
  A 0.28 0.27 64.7 0 1 362.69 615.35
  L 362.86 566.53
  A 0.67 0.67 0.0 0 0 361.60 566.20
  C 355.26 577.66 348.41 588.76 342.51 600.46
  C 334.84 615.69 329.98 631.49 326.73 647.99
  Q 326.23 650.52 326.05 659.22
  Q 326.04 659.71 325.70 660.05
  C 315.66 670.10 304.89 682.73 291.60 696.35
  C 288.84 699.18 286.09 702.38 285.35 706.44
  Q 283.71 715.42 288.36 723.41
  Q 288.60 723.82 288.26 724.16
  Q 269.61 743.10 244.35 750.59
  C 238.38 752.36 230.76 754.38 223.85 755.80
  Q 220.71 756.45 220.01 758.83
  Q 210.65 790.57 199.22 815.96
  Q 197.78 819.16 197.54 821.48
  A 1.46 1.44 -60.4 0 0 197.81 822.49
  Q 201.35 827.24 207.26 825.05
  Q 219.34 820.58 231.29 815.80
  Q 248.03 809.10 265.75 805.80
  Q 268.49 805.29 269.14 803.29
  Q 276.54 780.50 282.84 765.57
  Q 289.30 750.25 300.87 735.32
  Q 301.17 734.94 301.63 735.09
  Q 308.16 737.30 315.09 736.84
  C 320.07 736.51 323.30 732.18 326.74 728.49
  Q 344.53 709.38 361.91 690.15
  A 1.58 1.57 -68.3 0 1 363.10 689.63
  Q 395.07 689.82 424.79 678.53
  Q 433.10 675.37 443.18 670.69
  Q 462.80 661.57 480.35 649.21
  A 0.56 0.56 0.0 0 0 480.00 648.20
  L 393.42 653.15
  Q 392.53 653.20 393.12 652.53
  L 406.38 637.23
  A 0.94 0.93 18.8 0 1 407.04 636.91
  Q 448.09 634.54 489.25 631.71
  C 493.91 631.39 498.26 631.28 502.47 628.84
  Q 514.79 621.72 520.69 617.71
  Q 561.33 590.05 597.29 556.54
  C 611.82 543.00 626.58 529.53 640.29 515.16
  Q 648.90 506.14 657.80 496.85
  A 0.61 0.60 32.0 0 0 657.57 495.86
  C 655.15 494.98 651.81 495.97 649.95 496.12
  Q 623.63 498.22 597.42 501.30
  Q 588.47 502.35 578.04 503.04
  C 560.04 504.22 541.88 506.16 524.10 507.29
  Q 523.21 507.35 523.80 506.68
  Q 529.87 499.88 536.44 493.68
  Q 538.55 491.68 539.73 491.57
  Q 601.47 485.84 662.97 478.02
  Q 664.74 477.80 670.50 477.05
  Q 679.16 475.94 691.10 473.24
  C 695.81 472.18 699.28 468.52 702.68 465.17
  C 733.16 435.21 760.97 404.21 786.29 370.16
  A 0.82 0.82 0.0 0 0 785.67 368.86
  C 783.45 368.75 781.39 368.47 779.13 368.69
  C 759.28 370.59 739.61 373.52 719.81 375.62
  Q 693.48 378.40 667.26 382.05
  Q 664.53 382.43 656.65 382.70
  Q 656.05 382.72 656.47 382.30
  Q 663.77 375.06 671.09 367.83
  Q 674.14 364.81 676.74 364.45
  Q 691.52 362.42 700.00 361.52
  Q 730.67 358.26 761.20 353.93
  C 772.88 352.27 786.18 350.89 798.67 348.98
  Q 799.19 348.90 799.48 348.48
  Q 803.68 342.49 807.23 334.99
  C 812.98 322.81 818.16 311.50 822.55 299.02
  Q 833.97 266.52 842.23 233.05
  Q 844.19 225.14 844.51 217.02
  Q 844.64 213.87 842.89 211.38
  Q 838.12 204.60 829.75 205.97
  Q 820.92 207.41 806.53 211.52
  Q 740.72 230.33 679.19 260.19
  C 670.26 264.52 661.77 269.84 653.28 275.07
  C 651.84 275.96 650.78 276.36 650.34 278.22
  Q 643.15 308.50 635.80 338.44
  A 2.51 2.47 77.6 0 1 634.97 339.76
  L 614.80 356.50
  Q 614.30 356.92 614.43 356.27
  L 627.84 294.18
  A 0.68 0.68 0.0 0 0 626.81 293.46
  Q 595.79 313.26 567.67 337.30
  C 566.49 338.31 562.76 340.48 562.34 342.48
  Q 554.67 379.07 546.11 415.47
  Q 545.66 417.39 544.94 418.19
  Q 534.80 429.49 523.47 439.63
  Q 522.68 440.34 523.04 439.34
  C 523.48 438.14 524.23 437.05 524.44 435.88
  Q 528.58 413.11 533.28 390.44
  C 534.78 383.20 538.03 370.27 539.57 359.98
  A 0.49 0.48 73.6 0 0 538.77 359.54
  C 530.67 366.79 522.50 373.94 514.92 381.67
  Q 498.93 397.97 483.58 414.30
  A 5.56 5.52 71.6 0 0 482.17 417.15
  L 469.23 493.15
  Q 469.03 494.34 468.19 495.21
  L 448.30 516.14
  A 0.27 0.27 0.0 0 1 447.84 515.91" />
    <path stroke="#8f908a" vector-effect="non-scaling-stroke" d="
  M 383.60 316.87
  L 383.35 434.59
  Q 383.34 435.04 383.78 435.16
  Q 406.86 441.29 430.56 444.42
  Q 431.96 444.60 431.97 443.19
  Q 432.45 361.51 432.07 280.29
  C 432.01 267.30 422.31 265.77 411.74 265.79
  Q 373.26 265.88 334.74 265.94
  Q 322.43 265.96 314.82 267.21
  Q 299.46 269.73 285.48 275.70
  C 246.73 292.27 221.93 327.96 220.16 370.51
  Q 219.23 392.73 226.90 412.65
  C 234.63 432.73 249.82 450.57 266.81 463.48
  C 292.58 483.08 324.44 495.49 356.13 504.30
  Q 366.38 507.15 376.71 509.10
  A 1.36 1.35 22.8 0 0 378.07 508.55
  Q 393.57 486.20 411.27 465.57
  Q 412.71 463.90 410.55 463.43
  Q 382.17 457.36 353.53 448.18
  Q 327.48 439.84 303.41 426.90
  C 278.80 413.67 262.41 390.20 268.36 361.50
  C 272.58 341.15 287.82 326.44 307.27 320.40
  Q 311.74 319.01 319.90 317.75
  Q 329.49 316.26 332.75 316.26
  Q 357.83 316.30 383.01 316.29
  A 0.58 0.58 0.0 0 1 383.60 316.87" />
    <path stroke="#8f908a" vector-effect="non-scaling-stroke" d="
  M 576.52 274.00
  Q 575.75 275.58 575.75 276.25
  Q 575.82 289.58 575.65 302.74
  A 0.43 0.42 -18.4 0 0 576.34 303.08
  C 593.43 289.71 612.67 278.30 631.77 267.03
  A 0.72 0.71 29.5 0 0 631.40 265.70
  Q 610.22 265.78 588.77 266.29
  Q 580.18 266.49 576.52 274.00" />
    <path stroke="#8f908a" vector-effect="non-scaling-stroke" d="
  M 288.19 559.08
  Q 309.74 567.85 331.62 573.80
  A 2.28 2.28 0.0 0 0 334.19 572.74
  Q 347.70 549.45 364.09 528.08
  Q 365.47 526.28 363.25 525.81
  Q 340.54 521.04 317.46 512.53
  C 278.04 498.00 245.89 476.39 223.93 439.89
  Q 223.64 439.42 223.10 439.49
  Q 221.28 439.73 221.27 442.00
  Q 221.25 460.87 221.42 479.75
  C 221.76 518.41 255.53 545.78 288.19 559.08" />
    <path stroke="#8f908a" vector-effect="non-scaling-stroke" d="
  M 706.52 556.41
  Q 733.21 568.63 751.77 585.44
  Q 770.31 602.24 782.39 624.16
  Q 782.91 625.12 783.64 625.33
  A 0.93 0.92 7.8 0 0 784.82 624.44
  Q 784.73 608.59 784.84 592.63
  Q 784.90 583.12 783.76 576.88
  Q 776.37 536.37 740.19 514.81
  Q 719.09 502.23 691.48 493.52
  Q 690.21 493.12 689.40 492.80
  A 0.91 0.91 0.0 0 0 688.35 493.08
  Q 670.52 515.15 651.06 535.78
  A 0.32 0.32 0.0 0 0 651.20 536.31
  Q 679.66 544.12 706.52 556.41" />
    <path stroke="#8f908a" vector-effect="non-scaling-stroke" d="
  M 690.14 740.95
  Q 681.28 742.46 677.50 742.48
  Q 651.30 742.58 625.23 742.50
  A 0.99 0.88 -89.7 0 1 624.35 741.50
  L 624.49 560.25
  A 0.27 0.27 0.0 0 0 624.03 560.06
  Q 601.18 583.30 576.12 604.12
  Q 575.78 604.40 575.78 604.85
  Q 575.82 691.90 575.76 778.95
  Q 575.75 783.71 577.04 786.32
  C 580.54 793.44 586.25 793.55 594.36 793.55
  Q 632.38 793.52 670.39 793.47
  C 676.61 793.46 682.63 792.78 688.79 792.21
  C 738.03 787.59 777.63 752.82 784.76 703.23
  C 785.71 696.59 786.27 692.58 785.83 686.76
  C 784.60 670.35 781.26 654.54 773.81 639.93
  C 748.96 591.24 695.53 570.70 646.07 555.72
  A 0.77 0.77 0.0 0 0 645.08 556.45
  Q 645.02 582.56 645.12 609.00
  Q 645.13 610.81 646.81 611.36
  Q 671.80 619.57 695.16 631.66
  C 712.09 640.42 728.26 653.09 734.91 671.57
  C 744.07 697.07 733.05 723.28 708.77 735.02
  Q 699.97 739.28 690.14 740.95" />
    <path stroke="#8f908a" vector-effect="non-scaling-stroke" d="
  M 318.89 595.93
  C 274.32 609.98 232.82 637.56 222.68 685.98
  Q 221.20 693.04 221.14 704.16
  Q 221.07 718.20 221.37 732.25
  Q 221.39 733.22 221.55 733.61
  Q 221.93 734.53 222.90 734.28
  Q 233.74 731.45 244.19 727.94
  C 248.80 726.39 263.86 719.68 264.27 714.25
  C 264.75 707.81 262.84 696.32 268.15 689.69
  C 276.98 678.68 289.50 668.04 300.78 658.09
  C 301.51 657.44 301.98 656.30 302.11 655.42
  C 305.12 633.98 311.81 616.08 320.26 597.17
  A 1.01 1.01 0.0 0 0 319.86 595.89
  Q 319.56 595.71 318.89 595.93" />
    <path stroke="#8f908a" vector-effect="non-scaling-stroke" d="
  M 382.28 742.31
  L 342.37 742.80
  Q 341.56 742.81 341.03 743.42
  C 333.26 752.24 323.81 759.17 311.27 757.16
  Q 310.76 757.08 310.55 757.55
  Q 302.77 774.88 296.38 792.79
  A 0.58 0.58 0.0 0 0 296.93 793.56
  Q 355.87 793.39 414.50 793.51
  C 424.49 793.53 432.06 789.12 432.09 778.30
  Q 432.23 739.18 432.16 700.50
  A 0.92 0.92 0.0 0 0 430.93 699.64
  Q 410.64 706.90 389.49 710.16
  Q 388.06 710.38 383.75 710.51
  Q 383.29 710.52 383.29 710.98
  L 383.10 741.48
  A 0.83 0.83 0.0 0 1 382.28 742.31" />
    <path stroke="#8f908a" vector-effect="non-scaling-stroke" d="
  M 791.58 253.74
  C 734.82 283.82 680.69 318.34 631.71 360.05
  Q 596.27 390.23 578.34 406.59
  Q 546.22 435.89 502.24 479.60
  C 485.43 496.31 469.64 514.22 453.44 531.54
  C 442.16 543.59 431.23 556.26 420.09 568.59
  C 406.89 583.20 392.88 601.27 379.01 617.85
  C 349.54 653.08 331.55 674.74 304.08 703.76
  C 301.51 706.48 299.71 708.05 299.88 711.23
  Q 300.47 722.32 311.73 721.33
  Q 314.33 721.10 315.24 720.23
  Q 321.40 714.34 333.33 700.58
  Q 354.38 676.32 375.50 652.12
  Q 381.20 645.58 388.34 636.77
  C 413.66 605.51 441.11 574.16 465.86 546.36
  Q 496.64 511.77 543.24 466.24
  Q 590.47 420.10 647.41 371.00
  C 655.12 364.35 665.30 356.10 674.09 348.46
  Q 683.62 340.19 689.33 335.52
  Q 729.00 303.07 769.57 271.76
  C 776.32 266.56 785.11 260.43 792.21 254.70
  Q 796.93 250.90 791.58 253.74" />
    <path stroke="#8f908a" vector-effect="non-scaling-stroke" d="
  M 229.55 796.74
  L 254.02 788.20
  Q 254.54 788.01 254.68 787.48
  Q 257.60 775.73 262.15 764.51
  Q 262.34 764.04 261.86 764.20
  L 238.30 772.17
  A 2.31 2.29 0.2 0 0 236.87 773.58
  L 228.89 796.07
  Q 228.53 797.09 229.55 796.74" />
  </g>
  <g fill="transparent">
    <path d="
  M 0.00 0.00
  L 1024.00 0.00
  L 1024.00 1024.00
  L 0.00 1024.00
  L 0.00 0.00
  Z
  M 447.84 515.91
  L 459.77 444.31
  A 0.91 0.90 -19.2 0 0 458.21 443.56
  C 440.40 463.01 422.87 482.96 407.43 504.14
  Q 393.55 523.17 379.51 542.22
  A 1.86 1.85 -44.6 0 0 379.49 544.41
  C 380.51 545.84 380.82 547.72 380.84 549.63
  Q 381.08 570.75 380.91 592.24
  A 4.02 3.97 -25.6 0 1 380.02 594.72
  L 363.18 615.53
  A 0.28 0.27 64.7 0 1 362.69 615.35
  L 362.86 566.53
  A 0.67 0.67 0.0 0 0 361.60 566.20
  C 355.26 577.66 348.41 588.76 342.51 600.46
  C 334.84 615.69 329.98 631.49 326.73 647.99
  Q 326.23 650.52 326.05 659.22
  Q 326.04 659.71 325.70 660.05
  C 315.66 670.10 304.89 682.73 291.60 696.35
  C 288.84 699.18 286.09 702.38 285.35 706.44
  Q 283.71 715.42 288.36 723.41
  Q 288.60 723.82 288.26 724.16
  Q 269.61 743.10 244.35 750.59
  C 238.38 752.36 230.76 754.38 223.85 755.80
  Q 220.71 756.45 220.01 758.83
  Q 210.65 790.57 199.22 815.96
  Q 197.78 819.16 197.54 821.48
  A 1.46 1.44 -60.4 0 0 197.81 822.49
  Q 201.35 827.24 207.26 825.05
  Q 219.34 820.58 231.29 815.80
  Q 248.03 809.10 265.75 805.80
  Q 268.49 805.29 269.14 803.29
  Q 276.54 780.50 282.84 765.57
  Q 289.30 750.25 300.87 735.32
  Q 301.17 734.94 301.63 735.09
  Q 308.16 737.30 315.09 736.84
  C 320.07 736.51 323.30 732.18 326.74 728.49
  Q 344.53 709.38 361.91 690.15
  A 1.58 1.57 -68.3 0 1 363.10 689.63
  Q 395.07 689.82 424.79 678.53
  Q 433.10 675.37 443.18 670.69
  Q 462.80 661.57 480.35 649.21
  A 0.56 0.56 0.0 0 0 480.00 648.20
  L 393.42 653.15
  Q 392.53 653.20 393.12 652.53
  L 406.38 637.23
  A 0.94 0.93 18.8 0 1 407.04 636.91
  Q 448.09 634.54 489.25 631.71
  C 493.91 631.39 498.26 631.28 502.47 628.84
  Q 514.79 621.72 520.69 617.71
  Q 561.33 590.05 597.29 556.54
  C 611.82 543.00 626.58 529.53 640.29 515.16
  Q 648.90 506.14 657.80 496.85
  A 0.61 0.60 32.0 0 0 657.57 495.86
  C 655.15 494.98 651.81 495.97 649.95 496.12
  Q 623.63 498.22 597.42 501.30
  Q 588.47 502.35 578.04 503.04
  C 560.04 504.22 541.88 506.16 524.10 507.29
  Q 523.21 507.35 523.80 506.68
  Q 529.87 499.88 536.44 493.68
  Q 538.55 491.68 539.73 491.57
  Q 601.47 485.84 662.97 478.02
  Q 664.74 477.80 670.50 477.05
  Q 679.16 475.94 691.10 473.24
  C 695.81 472.18 699.28 468.52 702.68 465.17
  C 733.16 435.21 760.97 404.21 786.29 370.16
  A 0.82 0.82 0.0 0 0 785.67 368.86
  C 783.45 368.75 781.39 368.47 779.13 368.69
  C 759.28 370.59 739.61 373.52 719.81 375.62
  Q 693.48 378.40 667.26 382.05
  Q 664.53 382.43 656.65 382.70
  Q 656.05 382.72 656.47 382.30
  Q 663.77 375.06 671.09 367.83
  Q 674.14 364.81 676.74 364.45
  Q 691.52 362.42 700.00 361.52
  Q 730.67 358.26 761.20 353.93
  C 772.88 352.27 786.18 350.89 798.67 348.98
  Q 799.19 348.90 799.48 348.48
  Q 803.68 342.49 807.23 334.99
  C 812.98 322.81 818.16 311.50 822.55 299.02
  Q 833.97 266.52 842.23 233.05
  Q 844.19 225.14 844.51 217.02
  Q 844.64 213.87 842.89 211.38
  Q 838.12 204.60 829.75 205.97
  Q 820.92 207.41 806.53 211.52
  Q 740.72 230.33 679.19 260.19
  C 670.26 264.52 661.77 269.84 653.28 275.07
  C 651.84 275.96 650.78 276.36 650.34 278.22
  Q 643.15 308.50 635.80 338.44
  A 2.51 2.47 77.6 0 1 634.97 339.76
  L 614.80 356.50
  Q 614.30 356.92 614.43 356.27
  L 627.84 294.18
  A 0.68 0.68 0.0 0 0 626.81 293.46
  Q 595.79 313.26 567.67 337.30
  C 566.49 338.31 562.76 340.48 562.34 342.48
  Q 554.67 379.07 546.11 415.47
  Q 545.66 417.39 544.94 418.19
  Q 534.80 429.49 523.47 439.63
  Q 522.68 440.34 523.04 439.34
  C 523.48 438.14 524.23 437.05 524.44 435.88
  Q 528.58 413.11 533.28 390.44
  C 534.78 383.20 538.03 370.27 539.57 359.98
  A 0.49 0.48 73.6 0 0 538.77 359.54
  C 530.67 366.79 522.50 373.94 514.92 381.67
  Q 498.93 397.97 483.58 414.30
  A 5.56 5.52 71.6 0 0 482.17 417.15
  L 469.23 493.15
  Q 469.03 494.34 468.19 495.21
  L 448.30 516.14
  A 0.27 0.27 0.0 0 1 447.84 515.91
  Z
  M 383.60 316.87
  L 383.35 434.59
  Q 383.34 435.04 383.78 435.16
  Q 406.86 441.29 430.56 444.42
  Q 431.96 444.60 431.97 443.19
  Q 432.45 361.51 432.07 280.29
  C 432.01 267.30 422.31 265.77 411.74 265.79
  Q 373.26 265.88 334.74 265.94
  Q 322.43 265.96 314.82 267.21
  Q 299.46 269.73 285.48 275.70
  C 246.73 292.27 221.93 327.96 220.16 370.51
  Q 219.23 392.73 226.90 412.65
  C 234.63 432.73 249.82 450.57 266.81 463.48
  C 292.58 483.08 324.44 495.49 356.13 504.30
  Q 366.38 507.15 376.71 509.10
  A 1.36 1.35 22.8 0 0 378.07 508.55
  Q 393.57 486.20 411.27 465.57
  Q 412.71 463.90 410.55 463.43
  Q 382.17 457.36 353.53 448.18
  Q 327.48 439.84 303.41 426.90
  C 278.80 413.67 262.41 390.20 268.36 361.50
  C 272.58 341.15 287.82 326.44 307.27 320.40
  Q 311.74 319.01 319.90 317.75
  Q 329.49 316.26 332.75 316.26
  Q 357.83 316.30 383.01 316.29
  A 0.58 0.58 0.0 0 1 383.60 316.87
  Z
  M 576.52 274.00
  Q 575.75 275.58 575.75 276.25
  Q 575.82 289.58 575.65 302.74
  A 0.43 0.42 -18.4 0 0 576.34 303.08
  C 593.43 289.71 612.67 278.30 631.77 267.03
  A 0.72 0.71 29.5 0 0 631.40 265.70
  Q 610.22 265.78 588.77 266.29
  Q 580.18 266.49 576.52 274.00
  Z
  M 288.19 559.08
  Q 309.74 567.85 331.62 573.80
  A 2.28 2.28 0.0 0 0 334.19 572.74
  Q 347.70 549.45 364.09 528.08
  Q 365.47 526.28 363.25 525.81
  Q 340.54 521.04 317.46 512.53
  C 278.04 498.00 245.89 476.39 223.93 439.89
  Q 223.64 439.42 223.10 439.49
  Q 221.28 439.73 221.27 442.00
  Q 221.25 460.87 221.42 479.75
  C 221.76 518.41 255.53 545.78 288.19 559.08
  Z
  M 706.52 556.41
  Q 733.21 568.63 751.77 585.44
  Q 770.31 602.24 782.39 624.16
  Q 782.91 625.12 783.64 625.33
  A 0.93 0.92 7.8 0 0 784.82 624.44
  Q 784.73 608.59 784.84 592.63
  Q 784.90 583.12 783.76 576.88
  Q 776.37 536.37 740.19 514.81
  Q 719.09 502.23 691.48 493.52
  Q 690.21 493.12 689.40 492.80
  A 0.91 0.91 0.0 0 0 688.35 493.08
  Q 670.52 515.15 651.06 535.78
  A 0.32 0.32 0.0 0 0 651.20 536.31
  Q 679.66 544.12 706.52 556.41
  Z
  M 690.14 740.95
  Q 681.28 742.46 677.50 742.48
  Q 651.30 742.58 625.23 742.50
  A 0.99 0.88 -89.7 0 1 624.35 741.50
  L 624.49 560.25
  A 0.27 0.27 0.0 0 0 624.03 560.06
  Q 601.18 583.30 576.12 604.12
  Q 575.78 604.40 575.78 604.85
  Q 575.82 691.90 575.76 778.95
  Q 575.75 783.71 577.04 786.32
  C 580.54 793.44 586.25 793.55 594.36 793.55
  Q 632.38 793.52 670.39 793.47
  C 676.61 793.46 682.63 792.78 688.79 792.21
  C 738.03 787.59 777.63 752.82 784.76 703.23
  C 785.71 696.59 786.27 692.58 785.83 686.76
  C 784.60 670.35 781.26 654.54 773.81 639.93
  C 748.96 591.24 695.53 570.70 646.07 555.72
  A 0.77 0.77 0.0 0 0 645.08 556.45
  Q 645.02 582.56 645.12 609.00
  Q 645.13 610.81 646.81 611.36
  Q 671.80 619.57 695.16 631.66
  C 712.09 640.42 728.26 653.09 734.91 671.57
  C 744.07 697.07 733.05 723.28 708.77 735.02
  Q 699.97 739.28 690.14 740.95
  Z
  M 318.89 595.93
  C 274.32 609.98 232.82 637.56 222.68 685.98
  Q 221.20 693.04 221.14 704.16
  Q 221.07 718.20 221.37 732.25
  Q 221.39 733.22 221.55 733.61
  Q 221.93 734.53 222.90 734.28
  Q 233.74 731.45 244.19 727.94
  C 248.80 726.39 263.86 719.68 264.27 714.25
  C 264.75 707.81 262.84 696.32 268.15 689.69
  C 276.98 678.68 289.50 668.04 300.78 658.09
  C 301.51 657.44 301.98 656.30 302.11 655.42
  C 305.12 633.98 311.81 616.08 320.26 597.17
  A 1.01 1.01 0.0 0 0 319.86 595.89
  Q 319.56 595.71 318.89 595.93
  Z
  M 382.28 742.31
  L 342.37 742.80
  Q 341.56 742.81 341.03 743.42
  C 333.26 752.24 323.81 759.17 311.27 757.16
  Q 310.76 757.08 310.55 757.55
  Q 302.77 774.88 296.38 792.79
  A 0.58 0.58 0.0 0 0 296.93 793.56
  Q 355.87 793.39 414.50 793.51
  C 424.49 793.53 432.06 789.12 432.09 778.30
  Q 432.23 739.18 432.16 700.50
  A 0.92 0.92 0.0 0 0 430.93 699.64
  Q 410.64 706.90 389.49 710.16
  Q 388.06 710.38 383.75 710.51
  Q 383.29 710.52 383.29 710.98
  L 383.10 741.48
  A 0.83 0.83 0.0 0 1 382.28 742.31
  Z" />
    <path d="
  M 631.71 360.05
  C 680.69 318.34 734.82 283.82 791.58 253.74
  Q 796.93 250.90 792.21 254.70
  C 785.11 260.43 776.32 266.56 769.57 271.76
  Q 729.00 303.07 689.33 335.52
  Q 683.62 340.19 674.09 348.46
  C 665.30 356.10 655.12 364.35 647.41 371.00
  Q 590.47 420.10 543.24 466.24
  Q 496.64 511.77 465.86 546.36
  C 441.11 574.16 413.66 605.51 388.34 636.77
  Q 381.20 645.58 375.50 652.12
  Q 354.38 676.32 333.33 700.58
  Q 321.40 714.34 315.24 720.23
  Q 314.33 721.10 311.73 721.33
  Q 300.47 722.32 299.88 711.23
  C 299.71 708.05 301.51 706.48 304.08 703.76
  C 331.55 674.74 349.54 653.08 379.01 617.85
  C 392.88 601.27 406.89 583.20 420.09 568.59
  C 431.23 556.26 442.16 543.59 453.44 531.54
  C 469.64 514.22 485.43 496.31 502.24 479.60
  Q 546.22 435.89 578.34 406.59
  Q 596.27 390.23 631.71 360.05
  Z" />
    <path d="
  M 229.55 796.74
  Q 228.53 797.09 228.89 796.07
  L 236.87 773.58
  A 2.31 2.29 0.2 0 1 238.30 772.17
  L 261.86 764.20
  Q 262.34 764.04 262.15 764.51
  Q 257.60 775.73 254.68 787.48
  Q 254.54 788.01 254.02 788.20
  L 229.55 796.74
  Z" />
  </g>
  <g fill="#1f201a">
    <path d="
  M 447.84 515.91
  A 0.27 0.27 0.0 0 0 448.30 516.14
  L 468.19 495.21
  Q 469.03 494.34 469.23 493.15
  L 482.17 417.15
  A 5.56 5.52 71.6 0 1 483.58 414.30
  Q 498.93 397.97 514.92 381.67
  C 522.50 373.94 530.67 366.79 538.77 359.54
  A 0.49 0.48 73.6 0 1 539.57 359.98
  C 538.03 370.27 534.78 383.20 533.28 390.44
  Q 528.58 413.11 524.44 435.88
  C 524.23 437.05 523.48 438.14 523.04 439.34
  Q 522.68 440.34 523.47 439.63
  Q 534.80 429.49 544.94 418.19
  Q 545.66 417.39 546.11 415.47
  Q 554.67 379.07 562.34 342.48
  C 562.76 340.48 566.49 338.31 567.67 337.30
  Q 595.79 313.26 626.81 293.46
  A 0.68 0.68 0.0 0 1 627.84 294.18
  L 614.43 356.27
  Q 614.30 356.92 614.80 356.50
  L 634.97 339.76
  A 2.51 2.47 77.6 0 0 635.80 338.44
  Q 643.15 308.50 650.34 278.22
  C 650.78 276.36 651.84 275.96 653.28 275.07
  C 661.77 269.84 670.26 264.52 679.19 260.19
  Q 740.72 230.33 806.53 211.52
  Q 820.92 207.41 829.75 205.97
  Q 838.12 204.60 842.89 211.38
  Q 844.64 213.87 844.51 217.02
  Q 844.19 225.14 842.23 233.05
  Q 833.97 266.52 822.55 299.02
  C 818.16 311.50 812.98 322.81 807.23 334.99
  Q 803.68 342.49 799.48 348.48
  Q 799.19 348.90 798.67 348.98
  C 786.18 350.89 772.88 352.27 761.20 353.93
  Q 730.67 358.26 700.00 361.52
  Q 691.52 362.42 676.74 364.45
  Q 674.14 364.81 671.09 367.83
  Q 663.77 375.06 656.47 382.30
  Q 656.05 382.72 656.65 382.70
  Q 664.53 382.43 667.26 382.05
  Q 693.48 378.40 719.81 375.62
  C 739.61 373.52 759.28 370.59 779.13 368.69
  C 781.39 368.47 783.45 368.75 785.67 368.86
  A 0.82 0.82 0.0 0 1 786.29 370.16
  C 760.97 404.21 733.16 435.21 702.68 465.17
  C 699.28 468.52 695.81 472.18 691.10 473.24
  Q 679.16 475.94 670.50 477.05
  Q 664.74 477.80 662.97 478.02
  Q 601.47 485.84 539.73 491.57
  Q 538.55 491.68 536.44 493.68
  Q 529.87 499.88 523.80 506.68
  Q 523.21 507.35 524.10 507.29
  C 541.88 506.16 560.04 504.22 578.04 503.04
  Q 588.47 502.35 597.42 501.30
  Q 623.63 498.22 649.95 496.12
  C 651.81 495.97 655.15 494.98 657.57 495.86
  A 0.61 0.60 32.0 0 1 657.80 496.85
  Q 648.90 506.14 640.29 515.16
  C 626.58 529.53 611.82 543.00 597.29 556.54
  Q 561.33 590.05 520.69 617.71
  Q 514.79 621.72 502.47 628.84
  C 498.26 631.28 493.91 631.39 489.25 631.71
  Q 448.09 634.54 407.04 636.91
  A 0.94 0.93 18.8 0 0 406.38 637.23
  L 393.12 652.53
  Q 392.53 653.20 393.42 653.15
  L 480.00 648.20
  A 0.56 0.56 0.0 0 1 480.35 649.21
  Q 462.80 661.57 443.18 670.69
  Q 433.10 675.37 424.79 678.53
  Q 395.07 689.82 363.10 689.63
  A 1.58 1.57 -68.3 0 0 361.91 690.15
  Q 344.53 709.38 326.74 728.49
  C 323.30 732.18 320.07 736.51 315.09 736.84
  Q 308.16 737.30 301.63 735.09
  Q 301.17 734.94 300.87 735.32
  Q 289.30 750.25 282.84 765.57
  Q 276.54 780.50 269.14 803.29
  Q 268.49 805.29 265.75 805.80
  Q 248.03 809.10 231.29 815.80
  Q 219.34 820.58 207.26 825.05
  Q 201.35 827.24 197.81 822.49
  A 1.46 1.44 -60.4 0 1 197.54 821.48
  Q 197.78 819.16 199.22 815.96
  Q 210.65 790.57 220.01 758.83
  Q 220.71 756.45 223.85 755.80
  C 230.76 754.38 238.38 752.36 244.35 750.59
  Q 269.61 743.10 288.26 724.16
  Q 288.60 723.82 288.36 723.41
  Q 283.71 715.42 285.35 706.44
  C 286.09 702.38 288.84 699.18 291.60 696.35
  C 304.89 682.73 315.66 670.10 325.70 660.05
  Q 326.04 659.71 326.05 659.22
  Q 326.23 650.52 326.73 647.99
  C 329.98 631.49 334.84 615.69 342.51 600.46
  C 348.41 588.76 355.26 577.66 361.60 566.20
  A 0.67 0.67 0.0 0 1 362.86 566.53
  L 362.69 615.35
  A 0.28 0.27 64.7 0 0 363.18 615.53
  L 380.02 594.72
  A 4.02 3.97 -25.6 0 0 380.91 592.24
  Q 381.08 570.75 380.84 549.63
  C 380.82 547.72 380.51 545.84 379.49 544.41
  A 1.86 1.85 -44.6 0 1 379.51 542.22
  Q 393.55 523.17 407.43 504.14
  C 422.87 482.96 440.40 463.01 458.21 443.56
  A 0.91 0.90 -19.2 0 1 459.77 444.31
  L 447.84 515.91
  Z
  M 791.58 253.74
  C 734.82 283.82 680.69 318.34 631.71 360.05
  Q 596.27 390.23 578.34 406.59
  Q 546.22 435.89 502.24 479.60
  C 485.43 496.31 469.64 514.22 453.44 531.54
  C 442.16 543.59 431.23 556.26 420.09 568.59
  C 406.89 583.20 392.88 601.27 379.01 617.85
  C 349.54 653.08 331.55 674.74 304.08 703.76
  C 301.51 706.48 299.71 708.05 299.88 711.23
  Q 300.47 722.32 311.73 721.33
  Q 314.33 721.10 315.24 720.23
  Q 321.40 714.34 333.33 700.58
  Q 354.38 676.32 375.50 652.12
  Q 381.20 645.58 388.34 636.77
  C 413.66 605.51 441.11 574.16 465.86 546.36
  Q 496.64 511.77 543.24 466.24
  Q 590.47 420.10 647.41 371.00
  C 655.12 364.35 665.30 356.10 674.09 348.46
  Q 683.62 340.19 689.33 335.52
  Q 729.00 303.07 769.57 271.76
  C 776.32 266.56 785.11 260.43 792.21 254.70
  Q 796.93 250.90 791.58 253.74
  Z
  M 229.55 796.74
  L 254.02 788.20
  Q 254.54 788.01 254.68 787.48
  Q 257.60 775.73 262.15 764.51
  Q 262.34 764.04 261.86 764.20
  L 238.30 772.17
  A 2.31 2.29 0.2 0 0 236.87 773.58
  L 228.89 796.07
  Q 228.53 797.09 229.55 796.74
  Z" />
    <path d="
  M 383.60 316.87
  A 0.58 0.58 0.0 0 0 383.01 316.29
  Q 357.83 316.30 332.75 316.26
  Q 329.49 316.26 319.90 317.75
  Q 311.74 319.01 307.27 320.40
  C 287.82 326.44 272.58 341.15 268.36 361.50
  C 262.41 390.20 278.80 413.67 303.41 426.90
  Q 327.48 439.84 353.53 448.18
  Q 382.17 457.36 410.55 463.43
  Q 412.71 463.90 411.27 465.57
  Q 393.57 486.20 378.07 508.55
  A 1.36 1.35 22.8 0 1 376.71 509.10
  Q 366.38 507.15 356.13 504.30
  C 324.44 495.49 292.58 483.08 266.81 463.48
  C 249.82 450.57 234.63 432.73 226.90 412.65
  Q 219.23 392.73 220.16 370.51
  C 221.93 327.96 246.73 292.27 285.48 275.70
  Q 299.46 269.73 314.82 267.21
  Q 322.43 265.96 334.74 265.94
  Q 373.26 265.88 411.74 265.79
  C 422.31 265.77 432.01 267.30 432.07 280.29
  Q 432.45 361.51 431.97 443.19
  Q 431.96 444.60 430.56 444.42
  Q 406.86 441.29 383.78 435.16
  Q 383.34 435.04 383.35 434.59
  L 383.60 316.87
  Z" />
    <path d="
  M 576.52 274.00
  Q 580.18 266.49 588.77 266.29
  Q 610.22 265.78 631.40 265.70
  A 0.72 0.71 29.5 0 1 631.77 267.03
  C 612.67 278.30 593.43 289.71 576.34 303.08
  A 0.43 0.42 -18.4 0 1 575.65 302.74
  Q 575.82 289.58 575.75 276.25
  Q 575.75 275.58 576.52 274.00
  Z" />
    <path d="
  M 288.19 559.08
  C 255.53 545.78 221.76 518.41 221.42 479.75
  Q 221.25 460.87 221.27 442.00
  Q 221.28 439.73 223.10 439.49
  Q 223.64 439.42 223.93 439.89
  C 245.89 476.39 278.04 498.00 317.46 512.53
  Q 340.54 521.04 363.25 525.81
  Q 365.47 526.28 364.09 528.08
  Q 347.70 549.45 334.19 572.74
  A 2.28 2.28 0.0 0 1 331.62 573.80
  Q 309.74 567.85 288.19 559.08
  Z" />
    <path d="
  M 706.52 556.41
  Q 679.66 544.12 651.20 536.31
  A 0.32 0.32 0.0 0 1 651.06 535.78
  Q 670.52 515.15 688.35 493.08
  A 0.91 0.91 0.0 0 1 689.40 492.80
  Q 690.21 493.12 691.48 493.52
  Q 719.09 502.23 740.19 514.81
  Q 776.37 536.37 783.76 576.88
  Q 784.90 583.12 784.84 592.63
  Q 784.73 608.59 784.82 624.44
  A 0.93 0.92 7.8 0 1 783.64 625.33
  Q 782.91 625.12 782.39 624.16
  Q 770.31 602.24 751.77 585.44
  Q 733.21 568.63 706.52 556.41
  Z" />
    <path d="
  M 690.14 740.95
  Q 699.97 739.28 708.77 735.02
  C 733.05 723.28 744.07 697.07 734.91 671.57
  C 728.26 653.09 712.09 640.42 695.16 631.66
  Q 671.80 619.57 646.81 611.36
  Q 645.13 610.81 645.12 609.00
  Q 645.02 582.56 645.08 556.45
  A 0.77 0.77 0.0 0 1 646.07 555.72
  C 695.53 570.70 748.96 591.24 773.81 639.93
  C 781.26 654.54 784.60 670.35 785.83 686.76
  C 786.27 692.58 785.71 696.59 784.76 703.23
  C 777.63 752.82 738.03 787.59 688.79 792.21
  C 682.63 792.78 676.61 793.46 670.39 793.47
  Q 632.38 793.52 594.36 793.55
  C 586.25 793.55 580.54 793.44 577.04 786.32
  Q 575.75 783.71 575.76 778.95
  Q 575.82 691.90 575.78 604.85
  Q 575.78 604.40 576.12 604.12
  Q 601.18 583.30 624.03 560.06
  A 0.27 0.27 0.0 0 1 624.49 560.25
  L 624.35 741.50
  A 0.99 0.88 -89.7 0 0 625.23 742.50
  Q 651.30 742.58 677.50 742.48
  Q 681.28 742.46 690.14 740.95
  Z" />
    <path d="
  M 222.68 685.98
  C 232.82 637.56 274.32 609.98 318.89 595.93
  Q 319.56 595.71 319.86 595.89
  A 1.01 1.01 0.0 0 1 320.26 597.17
  C 311.81 616.08 305.12 633.98 302.11 655.42
  C 301.98 656.30 301.51 657.44 300.78 658.09
  C 289.50 668.04 276.98 678.68 268.15 689.69
  C 262.84 696.32 264.75 707.81 264.27 714.25
  C 263.86 719.68 248.80 726.39 244.19 727.94
  Q 233.74 731.45 222.90 734.28
  Q 221.93 734.53 221.55 733.61
  Q 221.39 733.22 221.37 732.25
  Q 221.07 718.20 221.14 704.16
  Q 221.20 693.04 222.68 685.98
  Z" />
    <path d="
  M 382.28 742.31
  A 0.83 0.83 0.0 0 0 383.10 741.48
  L 383.29 710.98
  Q 383.29 710.52 383.75 710.51
  Q 388.06 710.38 389.49 710.16
  Q 410.64 706.90 430.93 699.64
  A 0.92 0.92 0.0 0 1 432.16 700.50
  Q 432.23 739.18 432.09 778.30
  C 432.06 789.12 424.49 793.53 414.50 793.51
  Q 355.87 793.39 296.93 793.56
  A 0.58 0.58 0.0 0 1 296.38 792.79
  Q 302.77 774.88 310.55 757.55
  Q 310.76 757.08 311.27 757.16
  C 323.81 759.17 333.26 752.24 341.03 743.42
  Q 341.56 742.81 342.37 742.80
  L 382.28 742.31
  Z" />
  </g>
</svg>